<?xml version="1.0" encoding="UTF-8"?>
<svg id="_Шар_1" data-name="Шар 1" xmlns="http://www.w3.org/2000/svg" viewBox="0 0 378.9 359.19">
  <path d="m201.6,4.57c-21.3-10.82-47.48-1.79-57.44,20.22-8.88,19.61-1.29,43.09,17.38,53.8,14.83,8.51,32.42,6.99,45.32-2.12,7.28-5.14,16.73-6.02,24.67-1.99l1.28.65c7.08,3.59,11.69,10.55,12.68,18.43,1.31,10.37,7.84,19.89,18.25,24.5,14.18,6.28,31.1.93,39.06-12.38,9.33-15.59,3.39-35.53-12.52-43.61-9.5-4.82-20.31-4.29-28.99.48-7.01,3.86-15.41,4.23-22.55.6l-.82-.42c-7.95-4.04-13.2-12.09-13.28-21-.15-15.2-8.55-29.8-23.04-37.17Z"/>
  <path d="m290.36,134.64c8.56,2.25,13.61,9.87,13.61,17.72,0,4.3-1.54,8.7-4.84,12.27-14.03,15.26-13.81,38.78.51,53.75l70.55,73.7c6.01,6.28,8.7,13.89,8.7,21.32,0,16.05-12.49,31.38-31.22,31.38-10.83,0-20.47-5.55-26.06-14.08-2.57-3.93-4.01-8.49-4.61-13.14l-1.43-11.19c-1.78-16.82-5.24-54.01-5.24-54.03-1.98-18.67-17.19-28.28-39.08-18.8-.03.01-.07.03-.11.04-7.05,2.43-14.87.61-20.03-4.78l-33-32.61c-15.2-15.83-15.14-40.85.15-56.6h0c10.03-10.33,24.75-14.6,38.75-11.23l33.32,6.28Z"/>
  <path d="m193.35,100.44c8.95,2.04,15.61,10.05,15.61,19.59,0,8.67-6.72,14.28-10.96,21.18-4.96,8.09-7.59,17.49-7.59,26.97,0,14.28,5.78,27.22,15.16,36.55l1.89,1.98c5.34,5.54,7.36,7.63,12.7,13.17,11.17,11.58,22.34,23.17,33.51,34.75,9.74,10.09,19.47,20.19,29.21,30.28,5.32,5.52,11.32,10.86,14.8,17.81,9.64,19.26,1.85,42.69-17.41,52.33-19.26,9.64-42.69,1.85-52.33-17.41-2.41-4.81-3.4-9.87-4.01-15.05-.55-5.97-1.45-15.73-2.01-21.7-.78-11.14-1.98-22.26-2.97-33.38-.81-9.15-.67-18.7-4.8-27.11-6.14-12.51-19.18-20.63-33.11-20.63-12.2,0-21.78,5.91-29.57,14.81-.37.42-81.84,93.45-81.85,93.45-7.14,9.04-18.19,14.84-30.61,14.84C17.46,342.89,0,325.43,0,303.89c0-15.5,9.52-29.86,23.78-35.92,6.65-2.83,14.1-3.33,21.2-4.28,6.16-.82,12.32-1.64,18.48-2.46,16.9-2.25,35.95-1.92,50.31-12.35,12.03-8.73,19.3-22.96,19.3-37.83,0-9.57-3.64-18.08-7.06-26.8-2.81-7.17-5.62-14.34-8.43-21.51-2.69-6.87-5.38-13.74-8.07-20.61l-1.04-2.64-2.36-6.04c-.79-2.01-1.47-4.06-1.86-6.18-.36-1.97-.55-4.01-.55-6.08,0-18.44,14.95-33.39,33.39-33.39,2.24,0,4.44.23,6.57.65l2.97.75,46.72,11.23Z"/>
</svg>