<svg width="32" height="32" viewBox="0 0 32 32" fill="none"
    xmlns="http://www.w3.org/2000/svg">
    <rect width="32" height="32" rx="16" fill="#7F1BA4"/>
    <path d="M15.1889 7.40171C14.533 8.02735 13.9562 8.7124 13.6309 9.46962C13.306 10.2033 13.2194 11.0216 13.3835 11.8078C13.5133 12.5609 13.8823 13.251 14.435 13.7743C14.9821 14.3221 15.7224 14.7726 16.5057 15.2556C17.2838 15.7441 18.1397 16.2737 18.8471 17.0803C19.5579 17.8967 19.9762 18.9299 20.0351 20.0143C20.107 21.0559 19.8512 22.0938 19.3041 22.9805C18.7614 23.8459 17.9903 24.4813 17.1814 24.9666C17.0762 25.0298 16.9405 25.001 16.8694 24.9005C16.7984 24.8 16.8157 24.6613 16.9092 24.5817C17.5916 23.9951 18.18 23.3126 18.5269 22.5488C18.8692 21.798 18.9721 20.9586 18.8214 20.1464C18.7029 19.3698 18.3252 18.6572 17.7507 18.1261C17.1875 17.5825 16.4446 17.1486 15.6539 16.684C14.869 16.2129 14.0032 15.7152 13.2586 14.9329C12.8826 14.5314 12.5753 14.0698 12.3494 13.5668C12.1353 13.0647 12.0055 12.5301 11.9654 11.9851C11.8928 10.9328 12.1385 9.81888 12.7207 8.95762C13.2835 8.13814 14.0414 7.47424 14.925 7.02685C15.0271 6.97258 15.1532 7.00289 15.22 7.09773C15.2867 7.19257 15.2734 7.32258 15.1889 7.40171Z" fill="#ECE5E1"/>
    <path d="M17.0573 7.01812C17.6746 7.31141 18.2337 7.71578 18.7071 8.21136C18.9568 8.4814 19.1771 8.77761 19.3643 9.09492C19.5546 9.43278 19.7031 9.79291 19.8063 10.1672C19.9045 10.5511 19.9561 10.9456 19.9598 11.342C19.9519 11.7353 19.8559 13.6426 18.812 14.5601C18.6795 14.6539 18.5152 14.6904 18.3559 14.6616C18.1965 14.6327 18.0551 14.5409 17.9632 14.4066C17.8337 14.2053 17.8218 13.9492 17.9322 13.7367L17.9455 13.7119C18.2257 13.1795 19.3904 11.11 18.0609 8.8262C17.704 8.3024 17.2976 7.81471 16.8473 7.36998L16.8458 7.36858C16.7673 7.28502 16.7634 7.15543 16.8368 7.06726C16.8906 7.00214 16.9812 6.98193 17.0573 7.01812Z" fill="#ECE5E1"/>
    <path d="M14.9484 24.9822C14.3311 24.6888 13.772 24.2844 13.2986 23.7889C13.0488 23.5188 12.8285 23.2226 12.6413 22.9052C12.451 22.5674 12.3025 22.2073 12.1993 21.8331C12.101 21.4491 12.0495 21.0546 12.046 20.6581C12.0537 20.2648 12.1499 18.3577 13.1936 17.4402C13.3261 17.3464 13.4904 17.3099 13.6498 17.3387C13.8092 17.3675 13.9505 17.4593 14.0424 17.5937C14.172 17.795 14.1839 18.0511 14.0734 18.2636L14.0601 18.2884C13.78 18.8208 12.6152 20.8901 13.9449 23.1741C14.3017 23.6979 14.7081 24.1856 15.1585 24.6303L15.1598 24.6317C15.2383 24.7153 15.2422 24.8448 15.1688 24.933C15.1151 24.9982 15.0244 25.0184 14.9484 24.9822Z" fill="#ECE5E1"/>
</svg>
